<svg width="20" height="20" viewBox="0 0 20 20" fill="none" xmlns="http://www.w3.org/2000/svg">
<path d="M14.75 2.08398V3.66732M5.25 2.08398V3.66732" stroke="#141B34" stroke-linecap="round" stroke-linejoin="round"/>
<path d="M2.875 6.83398H17.125" stroke="#141B34" stroke-linecap="round" stroke-linejoin="round"/>
<path d="M2.47913 10.1926C2.47913 6.74303 2.47913 5.01827 3.47039 3.94663C4.46165 2.875 6.05706 2.875 9.24788 2.875H10.752C13.9429 2.875 15.5383 2.875 16.5295 3.94663C17.5208 5.01827 17.5208 6.74303 17.5208 10.1926V10.5991C17.5208 14.0486 17.5208 15.7734 16.5295 16.845C15.5383 17.9167 13.9429 17.9167 10.752 17.9167H9.24788C6.05706 17.9167 4.46165 17.9167 3.47039 16.845C2.47913 15.7734 2.47913 14.0486 2.47913 10.5991V10.1926Z" stroke="#141B34" stroke-linecap="round" stroke-linejoin="round"/>
<path d="M7.625 12.375H12.375M10 10L10 14.75" stroke="#141B34" stroke-linecap="round" stroke-linejoin="round"/>
</svg>
