<svg width="22" height="22" viewBox="0 0 22 22" fill="none" xmlns="http://www.w3.org/2000/svg">
<path d="M11 15.584C9.46582 15.584 8.13056 16.7436 7.44119 18.4542C7.11192 19.2713 7.5844 20.1673 8.21221 20.1673H13.7878C14.4156 20.1673 14.8881 19.2713 14.5588 18.4542C13.8694 16.7436 12.5342 15.584 11 15.584Z" stroke="white" stroke-width="1.5" stroke-linecap="round"/>
<path d="M16.9583 4.58398H18.0604C19.1612 4.58398 19.7115 4.58398 19.9987 4.9299C20.2858 5.27581 20.1664 5.79502 19.9276 6.83344L19.5695 8.39096C19.0308 10.7335 17.06 12.4754 14.6667 12.834" stroke="white" stroke-width="1.5" stroke-linecap="round" stroke-linejoin="round"/>
<path d="M5.04166 4.58398H3.93964C2.83885 4.58398 2.28845 4.58398 2.0013 4.9299C1.71416 5.27581 1.83355 5.79502 2.07235 6.83344L2.43052 8.39096C2.96921 10.7335 4.94003 12.4754 7.33333 12.834" stroke="white" stroke-width="1.5" stroke-linecap="round" stroke-linejoin="round"/>
<path d="M11 15.584C13.769 15.584 16.1012 11.3104 16.8023 5.4923C16.9961 3.88327 17.0931 3.07875 16.5796 2.45637C16.0661 1.83398 15.2371 1.83398 13.579 1.83398H8.42103C6.76293 1.83398 5.93388 1.83398 5.4204 2.45637C4.90692 3.07875 5.00386 3.88327 5.19773 5.4923C5.89875 11.3104 8.23096 15.584 11 15.584Z" stroke="white" stroke-width="1.5" stroke-linecap="round"/>
</svg>
