<svg width="33" height="34" viewBox="0 0 33 34" fill="none" xmlns="http://www.w3.org/2000/svg">
<rect width="33" height="34" rx="5" fill="transparent"/>
<g clip-path="url(#clip0_749_5229)">
<path d="M20.5 11V22.5C20.5 24.71 18.71 26.5 16.5 26.5C14.29 26.5 12.5 24.71 12.5 22.5V10C12.5 8.62 13.62 7.5 15 7.5C16.38 7.5 17.5 8.62 17.5 10V20.5C17.5 21.05 17.05 21.5 16.5 21.5C15.95 21.5 15.5 21.05 15.5 20.5V11H14V20.5C14 21.88 15.12 23 16.5 23C17.88 23 19 21.88 19 20.5V10C19 7.79 17.21 6 15 6C12.79 6 11 7.79 11 10V22.5C11 25.54 13.46 28 16.5 28C19.54 28 22 25.54 22 22.5V11H20.5Z" fill="#323232"/>
</g>
<defs>
<clipPath id="clip0_749_5229">
<rect width="24" height="24" fill="transparent" transform="translate(4 5)"/>
</clipPath>
</defs>
</svg>
