<svg width="33" height="34" viewBox="0 0 33 34" fill="none" xmlns="http://www.w3.org/2000/svg">
<rect width="33" height="34" rx="5" fill="transparent"/>
<path d="M16 21.584C14.4658 21.584 13.1306 22.7436 12.4412 24.4542C12.1119 25.2713 12.5844 26.1673 13.2122 26.1673H18.7878C19.4156 26.1673 19.8881 25.2713 19.5588 24.4542C18.8694 22.7436 17.5342 21.584 16 21.584Z" stroke="#141B34" stroke-width="1.5" stroke-linecap="round"/>
<path d="M21.9583 10.584H23.0604C24.1612 10.584 24.7115 10.584 24.9987 10.9299C25.2858 11.2758 25.1664 11.795 24.9276 12.8334L24.5695 14.391C24.0308 16.7335 22.06 18.4754 19.6667 18.834" stroke="#141B34" stroke-width="1.5" stroke-linecap="round" stroke-linejoin="round"/>
<path d="M10.0417 10.584H8.93964C7.83885 10.584 7.28845 10.584 7.0013 10.9299C6.71416 11.2758 6.83355 11.795 7.07235 12.8334L7.43052 14.391C7.96921 16.7335 9.94003 18.4754 12.3333 18.834" stroke="#141B34" stroke-width="1.5" stroke-linecap="round" stroke-linejoin="round"/>
<path d="M16 21.584C18.769 21.584 21.1012 17.3104 21.8023 11.4923C21.9961 9.88327 22.0931 9.07875 21.5796 8.45637C21.0661 7.83398 20.2371 7.83398 18.579 7.83398H13.421C11.7629 7.83398 10.9339 7.83398 10.4204 8.45637C9.90692 9.07875 10.0039 9.88327 10.1977 11.4923C10.8988 17.3104 13.231 21.584 16 21.584Z" stroke="#141B34" stroke-width="1.5" stroke-linecap="round"/>
</svg>
