<svg width="55" height="55" viewBox="0 0 55 55" fill="none" xmlns="http://www.w3.org/2000/svg">
<g clip-path="url(#clip0_1509_3330)">
<path d="M27.5003 10.3125C16.042 10.3125 6.25658 17.4396 2.29199 27.5C6.25658 37.5604 16.042 44.6875 27.5003 44.6875C38.9587 44.6875 48.7441 37.5604 52.7087 27.5C48.7441 17.4396 38.9587 10.3125 27.5003 10.3125ZM27.5003 38.9583C21.1753 38.9583 16.042 33.825 16.042 27.5C16.042 21.175 21.1753 16.0417 27.5003 16.0417C33.8253 16.0417 38.9587 21.175 38.9587 27.5C38.9587 33.825 33.8253 38.9583 27.5003 38.9583ZM27.5003 20.625C23.6962 20.625 20.6253 23.6958 20.6253 27.5C20.6253 31.3042 23.6962 34.375 27.5003 34.375C31.3045 34.375 34.3753 31.3042 34.3753 27.5C34.3753 23.6958 31.3045 20.625 27.5003 20.625Z" fill="#323232" fill-opacity="0.9"/>
</g>
<defs>
<clipPath id="clip0_1509_3330">
<rect width="55" height="55" fill="white"/>
</clipPath>
</defs>
</svg>
