<svg width="55" height="55" viewBox="0 0 55 55" fill="none" xmlns="http://www.w3.org/2000/svg">
<g clip-path="url(#clip0_1509_3335)">
<path d="M35.5204 32.0833H33.71L33.0684 31.4646C35.3142 28.8521 36.6663 25.4604 36.6663 21.7708C36.6663 13.5438 29.9975 6.875 21.7704 6.875C13.9329 6.875 7.51628 12.925 6.94336 20.625H11.5725C12.1454 15.4688 16.4538 11.4583 21.7704 11.4583C27.4767 11.4583 32.0829 16.0646 32.0829 21.7708C32.0829 27.4771 27.4767 32.0833 21.7704 32.0833C21.3809 32.0833 21.0142 32.0146 20.6246 31.9688V36.5979C21.0142 36.6438 21.3809 36.6667 21.7704 36.6667C25.46 36.6667 28.8517 35.3146 31.4642 33.0688L32.0829 33.7104V35.5208L43.5413 46.9562L46.9559 43.5417L35.5204 32.0833Z" fill="#323232" fill-opacity="0.9"/>
<path d="M14.8268 24.7959L9.16641 30.4563L3.50599 24.7959L1.87891 26.423L7.53932 32.0834L1.87891 37.7438L3.50599 39.3709L9.16641 33.7105L14.8268 39.3709L16.4539 37.7438L10.7935 32.0834L16.4539 26.423L14.8268 24.7959Z" fill="#323232" fill-opacity="0.9"/>
</g>
<defs>
<clipPath id="clip0_1509_3335">
<rect width="55" height="55" fill="white"/>
</clipPath>
</defs>
</svg>
