<svg width="13" height="13" viewBox="0 0 13 13" fill="none" xmlns="http://www.w3.org/2000/svg">
<g clip-path="url(#clip0_749_5019)">
<path d="M11.5469 3.86858L11.2796 3.40459C11.0774 3.05368 10.9763 2.87823 10.8042 2.80826C10.6322 2.7383 10.4377 2.7935 10.0486 2.90392L9.38762 3.09009C9.13921 3.14737 8.87859 3.11488 8.65176 2.99834L8.46929 2.89305C8.27478 2.76848 8.12518 2.5848 8.04237 2.36889L7.86147 1.82864C7.74254 1.47113 7.68307 1.29238 7.54149 1.19013C7.39991 1.08789 7.21186 1.08789 6.83575 1.08789H6.23191C5.8558 1.08789 5.66774 1.08789 5.52617 1.19013C5.38459 1.29238 5.32512 1.47113 5.20618 1.82864L5.02529 2.36889C4.94248 2.5848 4.79287 2.76848 4.59837 2.89305L4.41589 2.99834C4.18907 3.11488 3.92845 3.14737 3.68003 3.09009L3.01907 2.90392C2.62997 2.7935 2.43543 2.7383 2.26341 2.80826C2.09139 2.87823 1.99029 3.05368 1.78808 3.40459L1.52072 3.86858C1.33119 4.19751 1.23642 4.36197 1.25482 4.53705C1.27321 4.71213 1.40007 4.85321 1.65381 5.13539L2.21229 5.75977C2.34879 5.93258 2.4457 6.23372 2.4457 6.50447C2.4457 6.77539 2.34882 7.07646 2.2123 7.24929L1.65381 7.87368L1.65381 7.87368C1.40008 8.15586 1.27321 8.29694 1.25482 8.47202C1.23642 8.6471 1.33119 8.81157 1.52072 9.14049L1.78808 9.60447C1.99027 9.95537 2.09138 10.1308 2.26341 10.2008C2.43543 10.2708 2.62998 10.2156 3.01908 10.1051L3.68001 9.91896C3.92847 9.86166 4.18914 9.89417 4.41599 10.0108L4.59844 10.1161C4.7929 10.2406 4.94247 10.4243 5.02527 10.6402L5.20618 11.1805C5.32512 11.538 5.38459 11.7167 5.52617 11.819C5.66774 11.9212 5.8558 11.9212 6.23191 11.9212H6.83575C7.21186 11.9212 7.39991 11.9212 7.54149 11.819C7.68307 11.7167 7.74254 11.538 7.86147 11.1805L8.04238 10.6402C8.12518 10.4243 8.27475 10.2406 8.46922 10.1161L8.65167 10.0108C8.87852 9.89417 9.13919 9.86166 9.38764 9.91896L10.0486 10.1051C10.4377 10.2156 10.6322 10.2708 10.8042 10.2008C10.9763 10.1308 11.0774 9.95537 11.2796 9.60447L11.2796 9.60447L11.5469 9.14049C11.7365 8.81157 11.8312 8.6471 11.8128 8.47202C11.7944 8.29694 11.6676 8.15585 11.4138 7.87368L10.8554 7.24929C10.7188 7.07646 10.622 6.77539 10.622 6.50447C10.622 6.23372 10.7189 5.93258 10.8554 5.75977L11.4138 5.13539C11.6676 4.85321 11.7944 4.71213 11.8128 4.53705C11.8312 4.36197 11.7365 4.19751 11.5469 3.86858Z" stroke="#464646" stroke-width="0.7" stroke-linecap="round"/>
<path d="M8.40641 6.5013C8.40641 7.54834 7.55762 8.39714 6.51058 8.39714C5.46354 8.39714 4.61475 7.54834 4.61475 6.5013C4.61475 5.45426 5.46354 4.60547 6.51058 4.60547C7.55762 4.60547 8.40641 5.45426 8.40641 6.5013Z" stroke="#464646" stroke-width="0.7"/>
</g>
<defs>
<clipPath id="clip0_749_5019">
<rect width="13" height="13" fill="white"/>
</clipPath>
</defs>
</svg>
