<svg width="46" height="46" viewBox="0 0 46 46" fill="none" xmlns="http://www.w3.org/2000/svg">
<path d="M41 25C41 34.3888 32.9411 42 23 42C13.0589 42 5 34.3888 5 25" stroke="black" stroke-opacity="0.7" stroke-width="2" stroke-linecap="round" stroke-linejoin="round"/>
<path d="M14.3869 8.05549L15.5852 10.4182C15.7486 10.7471 16.1843 11.0625 16.552 11.123L18.7239 11.4787C20.1128 11.7069 20.4396 12.7003 19.4387 13.6803L17.7502 15.3449C17.4643 15.6268 17.3077 16.1705 17.3962 16.5598L17.8796 18.6205C18.2609 20.2515 17.3826 20.8825 15.9188 20.03L13.883 18.842C13.5154 18.6272 12.9094 18.6272 12.535 18.842L10.4992 20.03C9.04223 20.8825 8.15713 20.2448 8.5384 18.6205L9.02181 16.5598C9.11032 16.1705 8.95372 15.6268 8.66777 15.3449L6.97927 13.6803C5.98523 12.7003 6.30523 11.7069 7.69416 11.4787L9.86605 11.123C10.2269 11.0625 10.6626 10.7471 10.826 10.4182L12.0243 8.05549C12.6779 6.77347 13.7401 6.77347 14.3869 8.05549Z" stroke="black" stroke-opacity="0.7" stroke-width="2" stroke-linecap="round" stroke-linejoin="round"/>
<path d="M33.9686 8.05505L35.1669 10.4177C35.3303 10.7466 35.766 11.0621 36.1337 11.1225L38.3056 11.4783C39.6945 11.7065 40.0213 12.6999 39.0205 13.6798L37.332 15.3445C37.046 15.6264 36.8894 16.1701 36.9779 16.5594L37.4613 18.62C37.8426 20.2511 36.9643 20.882 35.5005 20.0296L33.4648 18.8415C33.0971 18.6267 32.4911 18.6267 32.1167 18.8415L30.0809 20.0296C28.6239 20.882 27.7388 20.2444 28.1201 18.62L28.6035 16.5594C28.692 16.1701 28.5354 15.6264 28.2495 15.3445L26.561 13.6798C25.5669 12.6999 25.8869 11.7065 27.2759 11.4783L29.4478 11.1225C29.8086 11.0621 30.2444 10.7466 30.4078 10.4177L31.606 8.05505C32.2597 6.77302 33.3218 6.77302 33.9686 8.05505Z" stroke="black" stroke-opacity="0.7" stroke-width="2" stroke-linecap="round" stroke-linejoin="round"/>
<path d="M16 29C17.5962 30.8217 20.1376 32 23 32C25.8624 32 28.4038 30.8217 30 29" stroke="black" stroke-opacity="0.7" stroke-width="2" stroke-linecap="round" stroke-linejoin="round"/>
</svg>
