<svg width="20" height="20" viewBox="0 0 20 20" fill="none" xmlns="http://www.w3.org/2000/svg">
<path d="M10.4167 18.3337H5.49241C4.2046 18.3337 3.18028 17.707 2.26057 16.8308C0.377824 15.0371 3.46902 13.6037 4.648 12.9016C6.39866 11.8592 8.44738 11.4769 10.4167 11.7546C11.1313 11.8554 11.8272 12.0431 12.5 12.3177" stroke="#141B34" stroke-width="1.5" stroke-linecap="round" stroke-linejoin="round"/>
<path d="M13.75 5.41699C13.75 7.48806 12.0711 9.16699 10 9.16699C7.92893 9.16699 6.25 7.48806 6.25 5.41699C6.25 3.34592 7.92893 1.66699 10 1.66699C12.0711 1.66699 13.75 3.34592 13.75 5.41699Z" stroke="#141B34" stroke-width="1.5"/>
<path d="M15.4167 18.3333L15.4167 12.5M12.5 15.4167H18.3333" stroke="#141B34" stroke-width="1.5" stroke-linecap="round"/>
</svg>
