<svg width="48" height="47" viewBox="0 0 48 47" fill="none" xmlns="http://www.w3.org/2000/svg">
<path d="M26.8 35.2503L27.9611 36.3872C28.5404 36.9545 28.83 37.2381 29.1825 37.2224C29.5349 37.2068 29.7972 36.8986 30.3216 36.2824L33.2 32.9003M38 35.2503C38 39.5766 34.4183 43.0837 30 43.0837C25.5817 43.0837 22 39.5766 22 35.2503C22 30.9241 25.5817 27.417 30 27.417C34.4183 27.417 38 30.9241 38 35.2503Z" stroke="black" stroke-opacity="0.7" stroke-width="2" stroke-linecap="round" stroke-linejoin="round"/>
<path d="M38.4867 11.0744L39.1863 10.3599L38.4867 11.0744ZM34.5222 7.19251L33.8226 7.90702L34.5222 7.19251ZM34.0699 5.2167C33.797 4.73652 33.1866 4.56843 32.7064 4.84128C32.2262 5.11412 32.0582 5.72456 32.331 6.20475L34.0699 5.2167ZM39.5216 13.2468C40.0066 13.511 40.6139 13.332 40.8781 12.847C41.1424 12.362 40.9634 11.7547 40.4784 11.4905L39.5216 13.2468ZM23.3846 15.46L24.0843 16.1745L24.0932 16.1655L23.3846 15.46ZM25.324 14.9295C25.7137 14.5381 25.7123 13.905 25.321 13.5153C24.9296 13.1256 24.2964 13.1269 23.9068 13.5183L25.324 14.9295ZM13.5305 33.7513L12.8309 34.4658L13.5305 33.7513ZM10.4615 30.3021L11.4415 30.103L11.4415 30.103L10.4615 30.3021ZM10.4615 29.3742L11.4415 29.5733L11.4415 29.5733L10.4615 29.3742ZM17.0396 37.4793C17.5817 37.5848 18.1067 37.231 18.2123 36.6889C18.3179 36.1468 17.964 35.6217 17.4219 35.5162L17.0396 37.4793ZM24.0718 11.6413C23.6705 11.2618 23.0376 11.2795 22.6581 11.6807C22.2786 12.0819 22.2962 12.7149 22.6975 13.0944L24.0718 11.6413ZM33.159 22.9891C33.5602 23.3686 34.1932 23.351 34.5727 22.9497C34.9522 22.5485 34.9345 21.9156 34.5333 21.5361L33.159 22.9891ZM15.4781 37.1916C15.8676 36.8001 15.8661 36.167 15.4746 35.7774C15.0831 35.3879 14.4499 35.3894 14.0604 35.7809L15.4781 37.1916ZM9.23077 33.7513L8.46297 33.1106C8.44905 33.1273 8.43568 33.1444 8.42288 33.1619L9.23077 33.7513ZM11.8447 32.1796C12.1986 31.7556 12.1417 31.1249 11.7176 30.7711C11.2936 30.4173 10.663 30.4742 10.3091 30.8982L11.8447 32.1796ZM9.40705 37.7888L10.1067 37.0743V37.0743L9.40705 37.7888ZM28.2035 16.0032C27.82 16.4006 27.8313 17.0337 28.2287 17.4172C28.6261 17.8007 29.2592 17.7894 29.6427 17.392L28.2035 16.0032ZM37.0789 9.68571C37.4624 9.28828 37.4511 8.65522 37.0537 8.27172C36.6563 7.88822 36.0232 7.89951 35.6397 8.29693L37.0789 9.68571ZM9.74489 38.8546C10.1134 38.4432 10.0786 37.811 9.66719 37.4425C9.2558 37.074 8.62359 37.1088 8.25511 37.5202L9.74489 38.8546ZM4.79357 41.3849C4.42509 41.7963 4.45988 42.4285 4.87127 42.7969C5.28266 43.1654 5.91487 43.1306 6.28335 42.7192L4.79357 41.3849ZM12.5992 38.6584L11.9324 37.9131L12.5992 38.6584ZM8.42999 34.7295L9.19312 35.3758L8.42999 34.7295ZM39.1863 10.3599L35.2218 6.478L33.8226 7.90702L37.7871 11.7889L39.1863 10.3599ZM35.2218 6.478C34.4599 5.73188 34.2245 5.48873 34.0699 5.2167L32.331 6.20475C32.6568 6.77819 33.1425 7.24107 33.8226 7.90702L35.2218 6.478ZM37.7871 11.7889C38.4684 12.456 38.9396 12.9297 39.5216 13.2468L40.4784 11.4905C40.1969 11.3371 39.9471 11.1048 39.1863 10.3599L37.7871 11.7889ZM24.0932 16.1655L25.324 14.9295L23.9068 13.5183L22.676 14.7544L24.0932 16.1655ZM14.2301 33.0368C13.681 32.4991 13.2248 32.0884 12.8488 31.7576C12.4602 31.4157 12.1975 31.1934 11.9811 30.988C11.7749 30.7923 11.6703 30.6657 11.603 30.5551C11.5413 30.4537 11.4868 30.3257 11.4415 30.103L9.48155 30.5011C9.5632 30.903 9.68955 31.2579 9.89434 31.5946C10.0935 31.922 10.341 32.1887 10.6042 32.4385C10.8571 32.6786 11.1809 32.954 11.5277 33.2592C11.8871 33.5753 12.3152 33.9609 12.8309 34.4658L14.2301 33.0368ZM22.685 14.7454C21.613 15.7951 18.4382 18.9689 15.4975 22.0387C14.028 23.5728 12.6089 25.0894 11.538 26.3053C11.0038 26.9117 10.5458 27.4552 10.2088 27.8946C10.0411 28.1133 9.89257 28.3202 9.77714 28.5049C9.68314 28.6553 9.53667 28.9038 9.48155 29.1751L11.4415 29.5733C11.4181 29.6884 11.3837 29.7079 11.4731 29.565C11.5409 29.4564 11.647 29.3058 11.7959 29.1116C12.0922 28.7252 12.5159 28.2209 13.0388 27.6272C14.082 26.4428 15.4785 24.9499 16.9418 23.4222C19.8669 20.3686 23.0267 17.21 24.0842 16.1745L22.685 14.7454ZM11.4415 30.103C11.4269 30.0309 11.4141 29.9705 11.4038 29.9218C11.3929 29.8706 11.3861 29.8385 11.3811 29.8127C11.3708 29.7601 11.3791 29.7878 11.3791 29.8381C11.3791 29.8884 11.3708 29.9162 11.3811 29.8636C11.3861 29.8377 11.3929 29.8057 11.4038 29.7544C11.4141 29.7057 11.4269 29.6453 11.4415 29.5733L9.48155 29.1751C9.46216 29.2706 9.43041 29.4177 9.4184 29.479C9.40123 29.5666 9.37913 29.691 9.37913 29.8381C9.37913 29.9852 9.40124 30.1097 9.4184 30.1973C9.43041 30.2585 9.46216 30.4057 9.48155 30.5011L11.4415 30.103ZM12.8309 34.4658C13.8562 35.4697 14.5261 36.1592 15.0805 36.5976C15.7203 37.1036 16.2651 37.3284 17.0396 37.4793L17.4219 35.5162C16.9205 35.4185 16.6799 35.3127 16.321 35.0289C15.8766 34.6775 15.3344 34.118 14.2301 33.0368L12.8309 34.4658ZM22.6975 13.0944L33.159 22.9891L34.5333 21.5361L24.0718 11.6413L22.6975 13.0944ZM14.0604 35.7809L12.8296 37.0177L14.2473 38.4285L15.4781 37.1916L14.0604 35.7809ZM9.99856 34.392L11.8447 32.1796L10.3091 30.8982L8.46297 33.1106L9.99856 34.392ZM10.1067 37.0743C9.68368 36.6601 9.41821 36.3987 9.23653 36.1826C9.06609 35.98 9.03505 35.8914 9.02435 35.8493L7.08589 36.3416C7.20013 36.7914 7.43607 37.1491 7.70586 37.4699C7.96441 37.7773 8.31243 38.1166 8.70742 38.5033L10.1067 37.0743ZM8.42288 33.1619C8.13955 33.5503 7.90593 33.8009 7.66686 34.0833L9.19312 35.3758C9.37763 35.1579 9.69852 34.8069 10.0387 34.3406L8.42288 33.1619ZM12.8296 37.0177C12.4817 37.3674 12.2141 37.6612 11.9324 37.9131L13.2659 39.4037C13.6037 39.1015 13.9803 38.6968 14.2473 38.4285L12.8296 37.0177ZM8.70742 38.5033C9.52958 39.3084 10.0488 39.7388 10.8403 39.9316L11.3135 37.9883C11.1001 37.9364 10.9205 37.8712 10.1067 37.0743L8.70742 38.5033ZM29.6427 17.392L37.0789 9.68571L35.6397 8.29693L28.2035 16.0032L29.6427 17.392ZM8.25511 37.5202L4.79357 41.3849L6.28335 42.7192L9.74489 38.8546L8.25511 37.5202ZM11.9324 37.9131C11.839 37.9967 11.6492 38.0701 11.3135 37.9883L10.8403 39.9316C11.5873 40.1134 12.5288 40.063 13.2659 39.4037L11.9324 37.9131ZM7.66686 34.0833C7.18934 34.6471 6.85959 35.4506 7.08589 36.3416L9.02435 35.8493C8.999 35.7495 9.00999 35.592 9.19312 35.3758L7.66686 34.0833Z" fill="black" fill-opacity="0.7"/>
</svg>
